<?xml version="1.0" encoding="UTF-8"?>
<svg xmlns="http://www.w3.org/2000/svg" viewBox="0 0 800 800" width="800" height="800">
  <defs>
    <mask id="cuts">
      <rect width="800" height="800" fill="white"/>
      <path d="M 416.5,416.2 C 422.0,394.2 437.4,367.8 457.2,337.0 C 479.2,306.2 507.8,279.8 532.0,260.0 C 504.5,287.5 479.2,320.5 459.4,350.2 C 439.6,378.8 427.5,407.4 422.0,433.8 C 419.8,427.2 417.6,421.7 416.5,416.2 Z" fill="black"/>
      <path d="M 383.5,416.2 C 378.0,394.2 362.6,367.8 342.8,337.0 C 320.8,306.2 292.2,279.8 268.0,260.0 C 295.5,287.5 320.8,320.5 340.6,350.2 C 360.4,378.8 372.5,407.4 378.0,433.8 C 380.2,427.2 382.4,421.7 383.5,416.2 Z" fill="black"/>
      <path d="M 400.0,86.2 L 398.0,304.0 L 398.0,469.0 L 400.0,513.0 L 402.0,469.0 L 402.0,304.0 Z" fill="black"/>
    </mask>
  </defs>
  <path d="M 400.0,73.0 C 408.8,106.0 433.0,155.5 441.8,199.5 C 452.8,251.2 452.8,298.5 441.8,337.0 C 435.2,361.2 426.4,378.8 419.8,392.0 C 415.4,400.8 411.0,411.8 408.8,425.0 C 406.6,438.2 406.6,449.2 411.0,458.0 C 417.6,449.2 426.4,430.5 439.6,411.8 C 457.2,387.6 479.2,361.2 501.2,334.8 C 523.2,308.4 545.2,284.2 562.8,265.5 C 584.8,243.5 603.5,227.0 614.5,218.2 C 631.0,207.2 647.5,196.2 655.2,185.2 C 664.0,172.0 661.8,152.2 647.5,141.2 C 633.2,132.4 614.5,133.5 600.2,144.5 C 587.0,155.5 581.5,174.2 584.8,191.8 C 587.0,205.0 592.5,216.0 589.2,224.8 C 584.8,235.8 570.5,254.5 554.0,276.5 C 532.0,306.2 510.0,337.0 490.2,367.8 C 471.5,396.4 457.2,425.0 448.4,449.2 C 441.8,466.8 437.4,480.0 435.2,491.0 C 439.6,496.5 452.8,502.0 468.2,506.4 C 493.5,513.0 523.2,517.4 545.2,513.0 C 567.2,508.6 578.2,496.5 573.8,482.2 C 569.4,469.0 554.0,462.4 537.5,462.4 C 521.0,463.5 505.6,471.2 492.4,482.2 C 479.2,493.2 466.0,502.0 455.0,506.4 L 455.0,517.4 L 455.0,532.8 L 415.4,532.8 L 415.4,576.8 C 415.4,590.0 426.4,601.0 441.8,609.8 L 450.6,616.4 L 457.2,636.2 L 342.8,636.2 L 349.4,616.4 L 358.2,609.8 C 373.6,601.0 384.6,590.0 384.6,576.8 L 384.6,532.8 L 345.0,532.8 L 345.0,517.4 L 345.0,506.4 C 334.0,502.0 320.8,493.2 307.6,482.2 C 294.4,471.2 279.0,463.5 262.5,462.4 C 246.0,462.4 230.6,469.0 226.2,482.2 C 221.8,496.5 232.8,508.6 254.8,513.0 C 276.8,517.4 306.5,513.0 331.8,506.4 C 347.2,502.0 360.4,496.5 364.8,491.0 C 362.6,480.0 358.2,466.8 351.6,449.2 C 342.8,425.0 328.5,396.4 309.8,367.8 C 290.0,337.0 268.0,306.2 246.0,276.5 C 229.5,254.5 215.2,235.8 210.8,224.8 C 207.5,216.0 213.0,205.0 215.2,191.8 C 218.5,174.2 213.0,155.5 199.8,144.5 C 185.5,133.5 166.8,132.4 152.5,141.2 C 138.2,152.2 136.0,172.0 144.8,185.2 C 152.5,196.2 169.0,207.2 185.5,218.2 C 196.5,227.0 215.2,243.5 237.2,265.5 C 254.8,284.2 276.8,308.4 298.8,334.8 C 320.8,361.2 342.8,387.6 360.4,411.8 C 373.6,430.5 382.4,449.2 389.0,458.0 C 393.4,449.2 393.4,438.2 391.2,425.0 C 389.0,411.8 384.6,400.8 380.2,392.0 C 373.6,378.8 364.8,361.2 358.2,337.0 C 347.2,298.5 347.2,251.2 358.2,199.5 C 367.0,155.5 391.2,106.0 400.0,73.0 Z" fill="#000" mask="url(#cuts)"/>
</svg>