<?xml version="1.0" encoding="UTF-8"?>
<svg version="1.1" xmlns="http://www.w3.org/2000/svg"
 width="891" height="860" viewBox="0 0 891 860"
 preserveAspectRatio="xMidYMid meet">
<metadata>
Created by potrace 1.16, written by Peter Selinger 2001-2019
</metadata>
<defs><linearGradient id="kineticGradient" x1="0%" y1="0%" x2="100%" y2="100%"><stop offset="0%" stop-color="#7B1818"/><stop offset="100%" stop-color="#FF5733"/></linearGradient></defs>
<g transform="translate(0.000000,860.000000) scale(0.100000,-0.100000)"
fill="url(#kineticGradient)" stroke="none">
<path d="M3159 8590 l-226 -5 -114 -69 c-63 -38 -181 -110 -264 -161 -82 -51
-346 -211 -585 -355 -573 -347 -520 -310 -570 -399 -24 -42 -151 -272 -283
-511 -131 -239 -272 -493 -312 -565 -40 -71 -123 -222 -185 -335 -62 -113
-179 -324 -260 -470 -197 -356 -315 -570 -329 -598 -16 -30 -38 -3 339 -426
69 -78 362 -409 650 -736 681 -772 870 -984 881 -988 5 -2 55 23 111 55 57 33
497 287 978 565 481 277 972 560 1090 627 118 68 231 133 250 146 l36 23 -3
1327 c-1 731 -5 1330 -7 1332 -2 2 -619 128 -1371 278 -752 151 -1369 276
-1372 278 -2 3 29 25 69 49 40 25 287 174 548 333 261 158 536 325 611 371
l136 84 1480 0 1479 0 145 -89 c79 -49 259 -158 399 -243 663 -402 828 -503
826 -505 -3 -3 -2737 -553 -2748 -553 -5 0 -8 -600 -8 -1333 l0 -1332 228
-132 c125 -72 328 -189 452 -261 524 -301 1476 -852 1616 -934 82 -48 155 -88
161 -88 11 0 460 501 928 1035 120 138 337 383 481 545 144 162 311 351 372
420 l110 124 -20 41 c-12 22 -87 159 -168 305 -81 146 -198 357 -260 470 -215
389 -323 586 -448 810 -68 124 -159 288 -202 365 -42 77 -133 241 -201 364
l-124 224 -80 52 c-44 28 -213 132 -375 230 -162 98 -387 235 -500 303 -113
69 -283 172 -378 230 l-174 105 -1291 1 c-711 1 -1394 -1 -1518 -4z"/>
<path d="M5 4708 c2 -73 7 -394 10 -713 l5 -580 124 -215 c169 -293 440 -761
518 -895 63 -108 549 -947 695 -1200 145 -251 85 -198 564 -485 233 -139 506
-302 605 -362 100 -59 184 -108 186 -108 3 0 -15 57 -39 128 -25 70 -154 447
-288 837 -134 391 -318 928 -409 1194 -91 267 -174 494 -184 505 -10 12 -72
82 -138 156 -66 74 -232 263 -370 419 -137 157 -372 425 -522 595 -151 171
-380 433 -510 583 -131 149 -240 272 -245 272 -4 1 -5 -59 -2 -131z"/>
<path d="M8760 4674 c-156 -178 -166 -189 -435 -495 -98 -112 -276 -314 -394
-449 -469 -533 -676 -769 -748 -847 l-74 -83 -196 -572 c-107 -315 -235 -690
-283 -833 -83 -243 -364 -1060 -409 -1187 -11 -32 -18 -58 -16 -58 5 0 392
231 925 550 l295 177 136 234 c74 129 234 405 356 614 121 209 348 601 505
870 156 270 328 564 380 655 l96 166 7 712 c4 392 6 712 4 712 -3 0 -70 -75
-149 -166z"/>
<path d="M4220 4084 c-317 -184 -500 -289 -855 -494 -165 -95 -406 -235 -535
-310 -129 -75 -367 -212 -527 -305 -161 -93 -293 -174 -293 -180 0 -6 41 -130
91 -276 84 -245 633 -1860 787 -2313 l67 -199 1505 1 1504 2 272 802 c149 442
328 967 396 1168 232 676 281 821 277 824 -5 5 -542 317 -1204 699 -286 165
-678 391 -871 503 -193 112 -358 206 -365 209 -8 3 -120 -56 -249 -131z"/>
</g>
</svg>
