<?xml version="1.0" standalone="no"?>
<!DOCTYPE svg PUBLIC "-//W3C//DTD SVG 20010904//EN"
 "http://www.w3.org/TR/2001/REC-SVG-20010904/DTD/svg10.dtd">
<svg version="1.0" xmlns="http://www.w3.org/2000/svg"
 width="382.000000pt" height="55.000000pt" viewBox="0 0 382.000000 55.000000"
 preserveAspectRatio="xMidYMid meet">
<metadata>
Created by potrace 1.16, written by Peter Selinger 2001-2019
</metadata>
<g transform="translate(0.000000,55.000000) scale(0.100000,-0.100000)"
fill="#1A1A1A" stroke="none">
<path d="M2453 536 c-119 -39 -176 -123 -177 -261 -2 -177 111 -287 277 -272
88 8 143 46 185 127 60 115 36 283 -50 355 -64 54 -160 75 -235 51z m122 -100
c132 -56 102 -317 -38 -333 -96 -11 -154 63 -145 186 10 130 83 189 183 147z"/>
<path d="M0 492 l0 -49 80 5 80 5 0 -222 0 -221 55 0 55 0 2 218 3 217 76 3
77 3 4 40 c2 22 2 42 -1 45 -2 2 -100 4 -218 4 l-213 0 0 -48z"/>
<path d="M507 533 c-4 -3 -7 -123 -7 -265 l0 -258 185 0 185 0 0 45 0 45 -125
0 -125 0 0 65 0 65 110 0 110 0 0 45 0 45 -110 0 -110 0 0 60 0 60 53 0 c28 0
82 3 120 7 l67 6 0 43 0 44 -173 0 c-96 0 -177 -3 -180 -7z"/>
<path d="M950 275 l0 -265 170 0 170 0 0 45 0 44 -112 3 -113 3 -2 215 -2 215
-55 3 -56 3 0 -266z"/>
<path d="M1370 275 l0 -265 180 0 180 0 0 45 0 45 -125 0 -125 0 0 65 0 64
113 3 112 3 0 40 0 40 -112 3 -113 3 0 65 0 65 120 -3 120 -3 0 48 0 47 -175
0 -175 0 0 -265z"/>
<path d="M1810 275 l0 -265 60 0 60 0 0 76 c0 74 22 134 50 134 5 0 40 -47 77
-105 l68 -105 68 0 67 0 -91 137 c-51 75 -94 144 -96 152 -2 9 35 62 87 123
49 59 90 110 90 113 0 3 -29 5 -63 5 l-64 0 -94 -117 -94 -117 -5 115 -5 114
-57 3 -58 3 0 -266z"/>
<path d="M2860 538 c0 -2 -2 -121 -3 -266 l-2 -262 58 0 57 0 0 95 0 94 42 -3
c23 -2 44 -8 45 -12 2 -5 23 -45 47 -89 l43 -80 62 -3 c35 -2 61 1 59 5 -2 4
-25 50 -51 101 l-48 93 30 24 c91 77 71 227 -39 283 -39 19 -59 22 -172 22
-70 0 -128 -1 -128 -2z m261 -117 c11 -14 19 -39 19 -61 0 -49 -24 -65 -107
-72 l-62 -6 -3 80 c-2 44 -1 82 2 85 16 16 134 -4 151 -26z"/>
<path d="M3485 528 c-16 -44 -175 -510 -175 -514 0 -2 27 -4 59 -4 l60 0 17
60 17 60 97 0 97 0 18 -60 18 -60 63 0 63 0 -31 82 c-17 46 -59 164 -93 263
l-63 180 -71 3 c-51 2 -73 -1 -76 -10z m108 -201 c35 -109 37 -105 -33 -109
-33 -1 -60 1 -60 5 0 18 54 187 60 187 3 0 18 -37 33 -83z"/>
</g>
</svg>
